Coordinates
version=1
nRows=49
nColumns=12
inDegrees=yes

Units are S.I. units (second, meters, Newtons, ...)
Angles are in degrees

endheader
time	SC_y	SC_z	SC_x	AC_y	AC_z	AC_x	GH_y	GH_z	GH_yy	EL_x	PS_y
       0.0              -37.04         -3.853           36.6          57.58         -15.85          17.61          98.03        -0.7633         -97.78          21.17          89.31
    0.0472              -37.04         -3.853           36.6          57.58         -15.85          17.61          98.02        -0.7593         -97.76          21.18          89.31
    0.0944              -37.04         -3.852          36.61          57.58         -15.85          17.61          98.01        -0.7551         -97.74          21.18          89.32
    0.1416              -37.04         -3.852          36.61          57.58         -15.84           17.6          97.99        -0.7505         -97.71          21.19          89.32
    0.1888              -37.04         -3.851          36.61          57.58         -15.84           17.6          97.98        -0.7457         -97.69           21.2          89.33
     0.236              -37.04         -3.851          36.61          57.58         -15.84           17.6          97.96        -0.7406         -97.66           21.2          89.33
    0.2832              -37.04          -3.85          36.61          57.58         -15.84           17.6          97.95        -0.7351         -97.63          21.21          89.34
    0.3304              -37.04         -3.849          36.61          57.58         -15.83           17.6          97.93        -0.7293          -97.6          21.22          89.35
    0.3776              -37.04         -3.849          36.61          57.58         -15.83          17.59          97.91         -0.723         -97.57          21.23          89.35
    0.4248              -37.03         -3.848          36.61          57.58         -15.83          17.59          97.89        -0.7163         -97.54          21.24          89.36
     0.472              -37.03         -3.847          36.62          57.58         -15.82          17.59          97.87        -0.7091          -97.5          21.25          89.37
    0.5192              -37.03         -3.846          36.62          57.58         -15.82          17.59          97.85        -0.7013         -97.46          21.26          89.38
    0.5664              -37.03         -3.845          36.62          57.58         -15.82          17.58          97.82        -0.6929         -97.41          21.27          89.39
    0.6136              -37.03         -3.844          36.62          57.58         -15.81          17.58          97.79        -0.6839         -97.37          21.29           89.4
    0.6608              -37.03         -3.843          36.62          57.58         -15.81          17.58          97.76        -0.6741         -97.32           21.3          89.41
     0.708              -37.02         -3.841          36.63          57.58          -15.8          17.57          97.73        -0.6635         -97.26          21.32          89.42
    0.7552              -37.02          -3.84          36.63          57.58          -15.8          17.57           97.7        -0.6519          -97.2          21.33          89.44
    0.8024              -37.02         -3.838          36.63          57.58         -15.79          17.56          97.66        -0.6394         -97.14          21.35          89.45
    0.8496              -37.02         -3.837          36.64          57.58         -15.79          17.56          97.62        -0.6256         -97.07          21.37          89.47
    0.8968              -37.02         -3.835          36.64          57.58         -15.78          17.55          97.57        -0.6106         -96.99          21.39          89.48
     0.944              -37.01         -3.833          36.64          57.58         -15.77          17.55          97.52        -0.5941          -96.9          21.42           89.5
    0.9912              -37.01         -3.831          36.65          57.58         -15.76          17.54          97.47         -0.576         -96.81          21.45          89.53
     1.038              -37.01         -3.828          36.65          57.58         -15.75          17.54          97.41        -0.5559         -96.71          21.48          89.55
     1.086               -37.0         -3.825          36.66          57.58         -15.74          17.53          97.34        -0.5337         -96.59          21.51          89.57
     1.133               -37.0         -3.822          36.67          57.58         -15.73          17.52          97.26         -0.509         -96.46          21.54           89.6
      1.18              -36.99         -3.819          36.67          57.58         -15.72          17.51          97.18        -0.4814         -96.32          21.59          89.64
     1.227              -36.99         -3.815          36.68          57.58         -15.71           17.5          97.09        -0.4505         -96.16          21.63          89.67
     1.274              -36.98         -3.811          36.69          57.58         -15.69          17.49          96.98        -0.4158         -95.98          21.68          89.71
     1.322              -36.97         -3.806           36.7          57.58         -15.67          17.47          96.86        -0.3765         -95.78          21.74          89.76
     1.369              -36.96         -3.801          36.71          57.58         -15.65          17.46          96.73        -0.3319         -95.55           21.8          89.81
     1.416              -36.95         -3.795          36.72          57.58         -15.63          17.44          96.57         -0.281         -95.28          21.88          89.87
     1.463              -36.94         -3.787          36.74          57.58          -15.6          17.42           96.4        -0.2227         -94.98          21.97          89.94
      1.51              -36.93         -3.779          36.75          57.58         -15.57           17.4          96.19        -0.1552         -94.63          22.06          90.02
     1.558              -36.92          -3.77          36.77          57.59         -15.54          17.37          95.96       -0.07692         -94.23          22.18          90.11
     1.605               -36.9         -3.758          36.79          57.59         -15.49          17.34          95.68        0.01473         -93.76          22.31          90.22
     1.652              -36.88         -3.745          36.82          57.59         -15.44           17.3          95.35         0.1228          -93.2          22.47          90.34
     1.699              -36.86         -3.729          36.85          57.59         -15.39          17.25          94.97         0.2512         -92.53          22.66          90.49
     1.746              -36.83         -3.711          36.89          57.59         -15.32           17.2           94.5         0.4051         -91.74          22.89          90.67
     1.794               -36.8         -3.688          36.93          57.59         -15.23          17.14          93.94         0.5913         -90.77          23.16          90.89
     1.841              -36.75          -3.66          36.99           57.6         -15.13          17.06          93.25         0.8187          -89.6           23.5          91.16
     1.888               -36.7         -3.626          37.06           57.6          -15.0          16.96           92.4          1.099         -88.15          23.91          91.49
     1.935              -36.64         -3.583          37.14           57.6         -14.84          16.84          91.34          1.449         -86.34          24.43           91.9
     1.982              -36.56         -3.529          37.25          57.61         -14.64          16.68          90.01           1.89         -84.06          25.07          92.41
      2.03              -36.45         -3.461          37.39          57.61         -14.38          16.49          88.31          2.451         -81.16           25.9          93.07
     2.077              -36.32         -3.373          37.56          57.62         -14.06          16.24          86.14          3.169         -77.45          26.96          93.91
     2.124              -36.15          -3.26          37.79          57.63         -13.63          15.92          83.36          4.089         -72.69          28.31          94.99
     2.171              -35.94         -3.116          38.08          57.64          -13.1          15.51           79.8          5.266          -66.6          30.04          96.37
     2.218              -35.67         -2.936          38.44          57.66         -12.42          14.99          75.33          6.744         -58.96          32.22           98.1
     2.266              -35.34         -2.715          38.88          57.68          -11.6          14.36          69.88          8.547         -49.64          34.87          100.2
